<svg width="165" height="20" viewBox="0 0 165 20" fill="none" xmlns="http://www.w3.org/2000/svg">
    <path d="M157.836 20c-4.355 0-7.137-2.796-7.137-7.527 0-4.664 2.823-7.5 7.137-7.5 4.315 0 7.137 2.823 7.137 7.5 0 4.745-2.782 7.527-7.137 7.527zm0-2.997c1.922 0 3.145-1.627 3.145-4.516 0-2.863-1.236-4.517-3.145-4.517-1.908 0-3.158 1.654-3.158 4.517 0 2.89 1.223 4.516 3.158 4.516zM142.796 20c-4.341 0-7.097-2.85-7.097-7.513 0-4.61 2.742-7.514 7.07-7.514 2.89 0 5.296 1.398 6.075 3.441.135.336.215.685.215.968 0 .968-.752 1.532-1.68 1.532-.779 0-1.25-.31-1.653-1.021-.712-1.264-1.586-1.842-2.836-1.842-1.989 0-3.212 1.64-3.212 4.422 0 2.836 1.223 4.45 3.185 4.45 1.371 0 2.218-.673 2.823-1.694.524-.82.954-1.156 1.787-1.156.914 0 1.654.604 1.654 1.572 0 .31-.081.632-.256 1.022-.86 1.962-3.32 3.333-6.075 3.333z" fill="#010340"/>
    <path d="M131.184 19.852a2.154 2.154 0 0 1-2.164-2.164c0-1.21.954-2.164 2.164-2.164 1.196 0 2.163.955 2.163 2.164a2.162 2.162 0 0 1-2.163 2.164z" fill="#256BFB"/>
    <path d="M122.594 19.973c-1.183 0-1.962-.74-1.962-2.043V6.962c0-1.25.766-1.976 1.895-1.976 1.102 0 1.855.726 1.855 1.976v.941h.08c.377-1.788 1.56-2.85 2.998-2.85.524 0 .941.122 1.223.363.376.296.564.78.564 1.452 0 .618-.188 1.089-.564 1.411-.376.323-.941.498-1.707.511-1.788.027-2.419 1.035-2.419 2.742v6.398c0 1.304-.767 2.043-1.963 2.043zM111.962 20c-4.503 0-7.15-2.782-7.15-7.446 0-4.637 2.701-7.58 6.962-7.58 4.086 0 6.828 2.795 6.828 6.706 0 1.089-.618 1.707-1.707 1.707h-8.226v.175c0 2.137 1.29 3.535 3.28 3.535 1.438 0 2.379-.484 3.44-1.734.417-.43.767-.578 1.277-.578.847 0 1.533.538 1.533 1.438 0 .31-.094.632-.269.954-.954 1.775-3.186 2.823-5.968 2.823zm-3.253-9.019h6.116c-.081-1.882-1.29-3.105-3.011-3.105-1.72 0-2.97 1.264-3.105 3.105zM94.596 19.96c-3.118 0-5.188-2.03-5.188-5.39V7.043c0-1.344.82-2.057 1.963-2.057 1.156 0 1.962.713 1.962 2.057v6.707c0 1.922.954 2.943 2.688 2.943 1.747 0 2.836-1.25 2.836-3.158V7.043c0-1.344.82-2.057 1.962-2.057 1.156 0 1.963.713 1.963 2.057v10.94c0 1.304-.766 1.99-1.895 1.99-1.13 0-1.895-.686-1.895-1.99v-.887h-.081c-.713 1.815-2.137 2.863-4.315 2.863zM80.807 20c-4.503 0-7.15-2.782-7.15-7.446 0-4.637 2.7-7.58 6.962-7.58 4.086 0 6.828 2.795 6.828 6.706 0 1.089-.619 1.707-1.707 1.707h-8.226v.175c0 2.137 1.29 3.535 3.28 3.535 1.438 0 2.378-.484 3.44-1.734.417-.43.766-.578 1.277-.578.847 0 1.532.538 1.532 1.438 0 .31-.094.632-.269.954C85.82 18.952 83.59 20 80.808 20zm-3.253-9.019h6.116c-.081-1.882-1.29-3.105-3.011-3.105-1.72 0-2.97 1.264-3.105 3.105zM65.658 16.008V8.239h-.752c-.928 0-1.52-.564-1.52-1.478s.592-1.479 1.52-1.479h.752v-1.6c0-1.263.74-2.042 1.963-2.042s1.962.78 1.962 2.043v1.6h1.384c.928 0 1.506.577 1.506 1.478 0 .9-.578 1.478-1.506 1.478h-1.384v6.895c0 1.022.35 1.452 1.196 1.52l.256.026c.967.108 1.492.51 1.492 1.425 0 1.156-1.13 1.747-2.783 1.747h-.134c-2.621 0-3.952-1.304-3.952-3.844zM56.29 20c-3.306 0-5.51-1.183-6.196-2.876a2.184 2.184 0 0 1-.148-.726c0-.9.672-1.505 1.586-1.505.632 0 1.17.282 1.707.887.766 1.008 1.654 1.465 3.146 1.465 1.424 0 2.352-.592 2.352-1.546 0-.78-.498-1.196-1.909-1.505l-2.42-.511c-2.822-.605-4.247-2.043-4.247-4.18 0-2.756 2.38-4.53 6.116-4.53 2.984 0 5.175 1.358 5.645 2.984.054.202.094.39.094.578 0 .793-.497 1.344-1.505 1.344-.51 0-1.076-.188-1.425-.605-.685-.873-1.465-1.545-2.876-1.545-1.33 0-2.258.631-2.258 1.559 0 .752.564 1.25 2.002 1.559l2.38.51c3.064.646 4.327 1.775 4.327 3.925 0 2.863-2.567 4.718-6.37 4.718zM40.242 13.522c-1.062 0-1.855-.632-1.855-1.72 0-1.09.793-1.708 1.855-1.708h5.604c1.062 0 1.855.619 1.855 1.707 0 1.089-.793 1.72-1.855 1.72h-5.604zM25.941 19.69c-1.035 0-1.693-.617-1.693-1.558 0-.511.147-.874.55-1.358l6.64-8.414v-.08h-5.685c-.995 0-1.586-.552-1.586-1.506 0-.94.578-1.492 1.586-1.492h8.387c1.156 0 1.868.659 1.868 1.72 0 .565-.174 1.009-.631 1.587l-6.13 8.024v.067h5.538c.995 0 1.586.551 1.586 1.506 0 .954-.591 1.505-1.586 1.505h-8.844zM17.728 19.973c-1.169 0-1.962-.685-1.962-2.043V8.24h-.753c-.82 0-1.438-.525-1.438-1.452 0-.914.619-1.438 1.438-1.438h.753V4.26c0-2.849 1.398-4.112 4.113-4.139 2.083 0 2.957.659 2.957 1.586 0 .551-.269.874-.793 1.035a3.744 3.744 0 0 1-.753.108c-1.21.04-1.693.524-1.693 1.586v.914h1.653c.82 0 1.438.524 1.438 1.438 0 .927-.618 1.451-1.438 1.451h-1.56v9.691c0 1.358-.806 2.043-1.962 2.043zM1.962 19.973C.82 19.973 0 19.274 0 17.93V2.056C0 .712.82 0 1.962 0c1.156 0 1.963.712 1.963 2.056v8.939h.053l5.216-5.229c.524-.551.967-.78 1.559-.78 1.008 0 1.747.74 1.747 1.708 0 .591-.175.954-.74 1.478L8.092 11.64l4.02 5.12c.43.579.55.928.55 1.439 0 1.048-.766 1.774-1.868 1.774-.833 0-1.304-.296-1.922-1.223l-3.696-4.893-1.25 1.156v2.917c0 1.344-.807 2.043-1.963 2.043z" fill="#010340"/>
</svg>
