<svg xmlns="http://www.w3.org/2000/svg" width="297" height="40">
    <path fill="#256BFB" fill-rule="evenodd" d="M291.39 18.302c-4.283 0-6.557 2.924-6.557 6.433v9.251h9.465v5.37h-23v-5.37h6.768V17.292h-6.768v-5.37h13.535v7.497h.423c1.005-3.881 3.331-7.497 8.777-7.497h2.961v6.38h-5.604zm-44.516 9.676c0 3.935 2.591 6.646 7.032 6.646 3.331 0 5.764-1.489 7.402-3.775l3.86 3.881c-1.956 2.871-5.71 5.264-11.473 5.264-8.724 0-13.588-5.53-13.588-14.302 0-8.879 5.076-14.408 13.059-14.408 7.878 0 12.848 5.476 12.848 13.77v2.233h-19.14v.691zm12.373-4.731v-.479c0-3.934-2.327-6.486-6.028-6.486-3.807 0-6.345 2.658-6.345 6.592v.373h12.373zm-31.192 11.271h-.264c-1.216 2.977-3.543 5.476-7.984 5.476-5.34 0-9.041-3.722-9.041-10.367V11.922h6.768v16.747c0 3.935 1.744 5.955 5.128 5.955 2.75 0 5.393-1.435 5.393-4.36V11.922h6.768v27.434h-6.768v-4.838zm-41.448-6.54c0 3.935 2.59 6.646 7.032 6.646 3.331 0 5.763-1.489 7.402-3.775l3.859 3.881c-1.956 2.871-5.71 5.264-11.473 5.264-8.724 0-13.588-5.53-13.588-14.302 0-8.879 5.076-14.408 13.059-14.408 7.878 0 12.848 5.476 12.848 13.77v2.233h-19.139v.691zm12.372-4.731v-.479c0-3.934-2.327-6.486-6.028-6.486-3.806 0-6.344 2.658-6.344 6.592v.373h12.372zm-42.083 8.666V17.292h-7.931v-5.37h5.393c2.168 0 3.014-.744 3.014-3.03V2.246h6.291v9.676h11.104v5.37h-11.104v16.694h11.104v5.37h-10.258c-5.181 0-7.613-3.084-7.613-7.443zm-20.511-14.036c6.344 1.169 9.464 4.838 9.464 10.367 0 6.912-4.812 11.75-13.747 11.75-6.292 0-10.786-2.393-13.588-6.008l4.177-4.359c2.749 3.189 5.974 4.678 9.623 4.678 4.229 0 6.556-2.02 6.556-5.582 0-2.924-1.534-4.36-5.552-4.998l-3.912-.638c-6.821-1.17-9.465-5.317-9.465-10.474 0-7.071 4.918-11.005 12.954-11.005 5.763 0 9.993 1.967 12.531 5.157l-4.071 4.36c-1.957-2.34-4.706-3.828-8.407-3.828-3.965 0-6.027 1.701-6.027 4.997 0 2.818 1.533 4.201 5.604 4.892l3.86.691zm-42.189 1.967h16.39v6.646h-16.39v-6.646zM60.202 33.561l15.862-16.269H60.731v-5.37h23.052v5.795L67.922 33.986h16.39v5.37h-24.11v-5.795zm-14.854.425h8.883v5.37H30.227v-5.37h8.354V17.292h-8.883v-5.37h8.883V7.456c0-4.359 2.432-7.443 7.666-7.443h9.2v5.37H45.348v6.539h10.099v5.37H45.348v16.694zm-25.533 5.37l-9.042-16.269-3.859 5.104v11.165H-.012V2.246h6.926V18.94h.317l4.283-6.167 7.772-10.527h7.825L15.532 17.877 27.64 39.356h-7.825z"/>
</svg>
