<svg version="1" xmlns="http://www.w3.org/2000/svg" width="933.333" height="933.333" viewBox="0 0 700.000000 700.000000"><path d="M106.5 109.7c-19 3.5-25.3 5.3-37 10.6-6 2.7-14.6 7.7-18 10.4-.6.4-2.8 2.1-5 3.7-11.6 8.6-25.2 24.8-32.4 38.6-3.8 7.3-8.6 19-9.6 23.4-.2 1.1-.9 3.9-1.4 6.1-1.9 8-2.3 11.2-2.5 23.5-.4 15.1 1.3 27.3 5.5 40 16.3 49.9 63.3 83.5 115.1 82.5 6.2-.1 13.6-.5 16.3-.9 6.1-.9 19.4-4.3 21.7-5.6 1-.6 2.3-1 2.9-1 1.4 0 13.8-6 19.9-9.6 25.2-14.9 46.1-42.7 53.4-71 4.7-18.2 5.4-38.9 1.9-54.9-.2-1.1-.6-3.1-.9-4.5-.9-4.3-5.2-16.4-7.9-22.5-15.9-34.7-50.5-61.2-88.2-67.6-6.6-1.1-29.8-1.9-33.8-1.2zM142 149c19 5 34.2 23.8 37.6 46.2l.5 3.7h-15.6c-11.3 0-15.7-.3-15.9-1.2-.2-.7-.9-3-1.5-5.2-2.8-10.7-11.8-18.3-20.1-17.1-9.6 1.3-14.9 7.7-18.4 21.8l-.6 2.8h32l-.6 3.7c-.3 2.1-1.2 7.3-2 11.7-.7 4.3-1.4 7.9-1.4 8 0 .1-6.7.1-15 .1l-15-.1v12.2h13.8c11.4 0 13.7.2 13.5 1.4-.3 1.7-3.2 17.7-3.7 20-.2 1.2-2.4 1.6-10.6 1.8l-10.2.3.6 3.2c1.1 5.5 5.9 14 9.7 17 7.9 6.2 19.2 4 24.9-5 1.7-2.6 3.3-6.5 3.7-8.5.3-2.1 1.1-3.9 1.7-3.9.6-.1 7.7-.2 15.8-.3 16.8-.1 15.8-.8 13.3 8.9-5.2 20-17.8 33.5-36 38.6-2.7.7-9.3 1.3-14.5 1.3-26.1-.1-41.7-13.3-49.5-41.9-1.3-4.6-2.1-8.6-1.7-8.9.3-.3-3.4-.6-8.3-.6h-8.8l.7-3.8c1.1-6.9 1.6-9.7 2.7-14.8l1.1-5 5 .1 4.9.2-.3-6.1-.3-6.1H59.9l.5-3.5c1-6.8 2.4-14.5 3.1-17.3.7-2.6 1-2.7 6.6-2.7s5.9-.1 6.5-2.8c5-22.8 14.6-37.8 28.7-44.7 4-1.9 9.2-3.7 11.7-4.1 2.5-.3 4.6-.7 4.8-.9.7-.7 16.2.4 20.2 1.5z"/><path d="M274.5 265c-1.2 1.9-5.3 8.9-9.1 15.5s-7.3 12.7-7.9 13.7c-.5.9-1.7 2.9-2.6 4.5-1.6 3-20.8 36.1-29.4 50.8-2.9 4.9-8 13.8-11.5 19.7l-6.2 10.8-4.6.1c-2.6 0-34.1.1-69.9.1H68l-.1 3.2c0 1.7-.1 20.7-.1 42.1l-.1 39.1-8.6-.1h-8.6v23.2l-.1 23.3H67.7l.1 13.7c0 7.6.1 14.4.1 15 .1 1 11 1.3 49.2 1.5l49.1.3 2.3 6.5c5.7 17 15.6 28.4 31.3 36.4 11.9 6 28.2 8 40 4.9 3.2-.9 6.2-1.6 6.7-1.7 3.1-.7 11.8-5.4 17-9.4 10.4-7.8 18.5-19.4 22-31.5l1.6-5.7 91.7.2 91.6.3 1.6 5.5c6.3 20.9 23 36.6 44.8 42 30.8 7.7 63.7-11.5 72.7-42.3l1.6-5.7H677v-30h23v-46.6l-11.2.1h-11.3l-.5-42-.5-42-21.5-.2c-11.8-.1-22.9-.2-24.6-.2-3.1-.1-4-1.3-21.2-31.3-31.3-54.5-49.2-85.1-50.3-86.3-.7-.7-49.3-1-141.6-1H276.7l-2.2 3.5zM560 310.2c8 13.8 15.7 27.2 17.1 29.7 1.5 2.5 9.1 15.6 16.9 29.1 7.8 13.4 15.4 26.5 16.8 29 1.4 2.5 2.9 4.7 3.3 5 .4.3 9.4.5 19.9.5 16.2 0 19.1.2 19.4 1.5.2.8.4 26.5.3 57l-.2 55.5-31.1.1-31.1.1-1.2-3.2c-.6-1.7-1.1-3.7-1.1-4.4 0-.8-1.4-4.1-3.1-7.5-8.4-16.4-20.9-27-38.4-32.3-19.6-6-42.4-.6-57.8 13.6-8.7 8.1-16.8 21.1-18.2 29.3-.3 1.8-.8 3.5-1.1 3.8-.3.3-41.7.5-92 .6H287l-1.6-5.5c-7.4-25.9-31.5-44-58.4-44.2-16.6 0-30.8 5.9-43 18.1-8 7.9-13.1 16.1-16 25.9l-1.6 5.6-37.7.1-37.7.1.2-57.1.3-57.1h129.6l19.5-33.5c10.6-18.4 19.8-34.2 20.4-35 .6-.8 1.3-2.2 1.7-3 .7-1.5 18.5-32.2 20.3-35 .5-.8 2.2-3.9 3.7-6.8l2.7-5.2h256.1l14.5 25.2zM242.1 494.7c11.3 5.4 17.8 12.9 21.3 24.8 1.5 4.9 1.4 16-.2 21-8.1 25.5-39.2 35-60 18.5-17.6-13.8-19.3-40.7-3.6-56.4 11.3-11.3 28.6-14.5 42.5-7.9zm299.2-1.9c17 5 28.2 20.5 27.2 38-.6 10.8-4 18.7-11.2 25.7-23.8 23.1-64.3 6.4-64.4-26.5-.1-12.9 4.8-23.2 14.8-31.2 8.5-6.7 22.6-9.3 33.6-6z"/><path d="M306 308.8c-1.9.2-3.4 1.9-6.4 7-6.8 11.9-22 38.2-24 41.5-9 15.5-20.2 34.8-21.8 37.7-1.1 1.9-2.5 4.1-3 4.7-.8 1 .7 1.3 7.1 1.3 4.4 0 32.6.1 62.6.1s56.4-.1 58.8-.1h4.2v-46c0-30-.3-46-1-46.1-4-.2-74.5-.3-76.5-.1zM408.7 308.8c-1 .2-1.7 1.3-1.7 2.5-.2 21.7 0 89.1.3 89.4.4.3 58.8.5 106 .3h5.7v-92l-2.2-.1c-8.7-.2-106.8-.3-108.1-.1zM542.5 364.6l-.1 36.4 8.1.1c16 .1 33.8-.1 34-.3.2-.3-41-71.6-41.7-72.4-.2-.1-.3 16.1-.3 36.2z"/></svg>