<svg style="position: absolute; width: 0; height: 0;" width="0" height="0" version="1.1" xmlns="http://www.w3.org/2000/svg" xmlns:xlink="http://www.w3.org/1999/xlink">
    <defs>
        <symbol id="logo" viewBox="0 0 165 20">
            <path d="M157.836 20c-4.355 0-7.137-2.796-7.137-7.527 0-4.664 2.823-7.5 7.137-7.5 4.315 0 7.137 2.823 7.137 7.5 0 4.745-2.782 7.527-7.137 7.527zm0-2.997c1.922 0 3.145-1.627 3.145-4.516 0-2.863-1.236-4.517-3.145-4.517-1.908 0-3.158 1.654-3.158 4.517 0 2.89 1.223 4.516 3.158 4.516zM142.796 20c-4.341 0-7.097-2.85-7.097-7.513 0-4.61 2.742-7.514 7.07-7.514 2.89 0 5.296 1.398 6.075 3.441.135.336.215.685.215.968 0 .968-.752 1.532-1.68 1.532-.779 0-1.25-.31-1.653-1.021-.712-1.264-1.586-1.842-2.836-1.842-1.989 0-3.212 1.64-3.212 4.422 0 2.836 1.223 4.45 3.185 4.45 1.371 0 2.218-.673 2.823-1.694.524-.82.954-1.156 1.787-1.156.914 0 1.654.604 1.654 1.572 0 .31-.081.632-.256 1.022-.86 1.962-3.32 3.333-6.075 3.333z" fill="#010340"/>
            <path d="M131.184 19.852a2.154 2.154 0 0 1-2.164-2.164c0-1.21.954-2.164 2.164-2.164 1.196 0 2.163.955 2.163 2.164a2.162 2.162 0 0 1-2.163 2.164z" fill="#256BFB"/>
            <path d="M122.594 19.973c-1.183 0-1.962-.74-1.962-2.043V6.962c0-1.25.766-1.976 1.895-1.976 1.102 0 1.855.726 1.855 1.976v.941h.08c.377-1.788 1.56-2.85 2.998-2.85.524 0 .941.122 1.223.363.376.296.564.78.564 1.452 0 .618-.188 1.089-.564 1.411-.376.323-.941.498-1.707.511-1.788.027-2.419 1.035-2.419 2.742v6.398c0 1.304-.767 2.043-1.963 2.043zM111.962 20c-4.503 0-7.15-2.782-7.15-7.446 0-4.637 2.701-7.58 6.962-7.58 4.086 0 6.828 2.795 6.828 6.706 0 1.089-.618 1.707-1.707 1.707h-8.226v.175c0 2.137 1.29 3.535 3.28 3.535 1.438 0 2.379-.484 3.44-1.734.417-.43.767-.578 1.277-.578.847 0 1.533.538 1.533 1.438 0 .31-.094.632-.269.954-.954 1.775-3.186 2.823-5.968 2.823zm-3.253-9.019h6.116c-.081-1.882-1.29-3.105-3.011-3.105-1.72 0-2.97 1.264-3.105 3.105zM94.596 19.96c-3.118 0-5.188-2.03-5.188-5.39V7.043c0-1.344.82-2.057 1.963-2.057 1.156 0 1.962.713 1.962 2.057v6.707c0 1.922.954 2.943 2.688 2.943 1.747 0 2.836-1.25 2.836-3.158V7.043c0-1.344.82-2.057 1.962-2.057 1.156 0 1.963.713 1.963 2.057v10.94c0 1.304-.766 1.99-1.895 1.99-1.13 0-1.895-.686-1.895-1.99v-.887h-.081c-.713 1.815-2.137 2.863-4.315 2.863zM80.807 20c-4.503 0-7.15-2.782-7.15-7.446 0-4.637 2.7-7.58 6.962-7.58 4.086 0 6.828 2.795 6.828 6.706 0 1.089-.619 1.707-1.707 1.707h-8.226v.175c0 2.137 1.29 3.535 3.28 3.535 1.438 0 2.378-.484 3.44-1.734.417-.43.766-.578 1.277-.578.847 0 1.532.538 1.532 1.438 0 .31-.094.632-.269.954C85.82 18.952 83.59 20 80.808 20zm-3.253-9.019h6.116c-.081-1.882-1.29-3.105-3.011-3.105-1.72 0-2.97 1.264-3.105 3.105zM65.658 16.008V8.239h-.752c-.928 0-1.52-.564-1.52-1.478s.592-1.479 1.52-1.479h.752v-1.6c0-1.263.74-2.042 1.963-2.042s1.962.78 1.962 2.043v1.6h1.384c.928 0 1.506.577 1.506 1.478 0 .9-.578 1.478-1.506 1.478h-1.384v6.895c0 1.022.35 1.452 1.196 1.52l.256.026c.967.108 1.492.51 1.492 1.425 0 1.156-1.13 1.747-2.783 1.747h-.134c-2.621 0-3.952-1.304-3.952-3.844zM56.29 20c-3.306 0-5.51-1.183-6.196-2.876a2.184 2.184 0 0 1-.148-.726c0-.9.672-1.505 1.586-1.505.632 0 1.17.282 1.707.887.766 1.008 1.654 1.465 3.146 1.465 1.424 0 2.352-.592 2.352-1.546 0-.78-.498-1.196-1.909-1.505l-2.42-.511c-2.822-.605-4.247-2.043-4.247-4.18 0-2.756 2.38-4.53 6.116-4.53 2.984 0 5.175 1.358 5.645 2.984.054.202.094.39.094.578 0 .793-.497 1.344-1.505 1.344-.51 0-1.076-.188-1.425-.605-.685-.873-1.465-1.545-2.876-1.545-1.33 0-2.258.631-2.258 1.559 0 .752.564 1.25 2.002 1.559l2.38.51c3.064.646 4.327 1.775 4.327 3.925 0 2.863-2.567 4.718-6.37 4.718zM40.242 13.522c-1.062 0-1.855-.632-1.855-1.72 0-1.09.793-1.708 1.855-1.708h5.604c1.062 0 1.855.619 1.855 1.707 0 1.089-.793 1.72-1.855 1.72h-5.604zM25.941 19.69c-1.035 0-1.693-.617-1.693-1.558 0-.511.147-.874.55-1.358l6.64-8.414v-.08h-5.685c-.995 0-1.586-.552-1.586-1.506 0-.94.578-1.492 1.586-1.492h8.387c1.156 0 1.868.659 1.868 1.72 0 .565-.174 1.009-.631 1.587l-6.13 8.024v.067h5.538c.995 0 1.586.551 1.586 1.506 0 .954-.591 1.505-1.586 1.505h-8.844zM17.728 19.973c-1.169 0-1.962-.685-1.962-2.043V8.24h-.753c-.82 0-1.438-.525-1.438-1.452 0-.914.619-1.438 1.438-1.438h.753V4.26c0-2.849 1.398-4.112 4.113-4.139 2.083 0 2.957.659 2.957 1.586 0 .551-.269.874-.793 1.035a3.744 3.744 0 0 1-.753.108c-1.21.04-1.693.524-1.693 1.586v.914h1.653c.82 0 1.438.524 1.438 1.438 0 .927-.618 1.451-1.438 1.451h-1.56v9.691c0 1.358-.806 2.043-1.962 2.043zM1.962 19.973C.82 19.973 0 19.274 0 17.93V2.056C0 .712.82 0 1.962 0c1.156 0 1.963.712 1.963 2.056v8.939h.053l5.216-5.229c.524-.551.967-.78 1.559-.78 1.008 0 1.747.74 1.747 1.708 0 .591-.175.954-.74 1.478L8.092 11.64l4.02 5.12c.43.579.55.928.55 1.439 0 1.048-.766 1.774-1.868 1.774-.833 0-1.304-.296-1.922-1.223l-3.696-4.893-1.25 1.156v2.917c0 1.344-.807 2.043-1.963 2.043z" fill="#010340"/>
        </symbol>
        <symbol id="icon-search" viewBox="0 0 951 1024">
            <title>search</title>
            <path class="path1" d="M658.286 475.429q0-105.714-75.143-180.857t-180.857-75.143-180.857 75.143-75.143 180.857 75.143 180.857 180.857 75.143 180.857-75.143 75.143-180.857zM950.857 950.857q0 29.714-21.714 51.429t-51.429 21.714q-30.857 0-51.429-21.714l-196-195.429q-102.286 70.857-228 70.857-81.714 0-156.286-31.714t-128.571-85.714-85.714-128.571-31.714-156.286 31.714-156.286 85.714-128.571 128.571-85.714 156.286-31.714 156.286 31.714 128.571 85.714 85.714 128.571 31.714 156.286q0 125.714-70.857 228l196 196q21.143 21.143 21.143 51.429z"></path>
        </symbol>
        <symbol id="icon-feed" viewBox="0 0 805 1024">
            <title>feed</title>
            <path class="path1" d="M219.429 768q0 45.714-32 77.714t-77.714 32-77.714-32-32-77.714 32-77.714 77.714-32 77.714 32 32 77.714zM512 838.286q1.143 16-9.714 27.429-10.286 12-26.857 12h-77.143q-14.286 0-24.571-9.429t-11.429-23.714q-12.571-130.857-105.429-223.714t-223.714-105.429q-14.286-1.143-23.714-11.429t-9.429-24.571v-77.143q0-16.571 12-26.857 9.714-9.714 24.571-9.714h2.857q91.429 7.429 174.857 46t148 103.714q65.143 64.571 103.714 148t46 174.857zM804.571 839.429q1.143 15.429-10.286 26.857-10.286 11.429-26.286 11.429h-81.714q-14.857 0-25.429-10t-11.143-24.286q-6.857-122.857-57.714-233.429t-132.286-192-192-132.286-233.429-58.286q-14.286-0.571-24.286-11.143t-10-24.857v-81.714q0-16 11.429-26.286 10.286-10.286 25.143-10.286h1.714q149.714 7.429 286.571 68.571t243.143 168q106.857 106.286 168 243.143t68.571 286.571z"></path>
        </symbol>
        <symbol id="icon-twitter" viewBox="0 0 951 1024">
            <title>twitter</title>
            <path class="path1" d="M925.714 233.143q-38.286 56-92.571 95.429 0.571 8 0.571 24 0 74.286-21.714 148.286t-66 142-105.429 120.286-147.429 83.429-184.571 31.143q-154.857 0-283.429-82.857 20 2.286 44.571 2.286 128.571 0 229.143-78.857-60-1.143-107.429-36.857t-65.143-91.143q18.857 2.857 34.857 2.857 24.571 0 48.571-6.286-64-13.143-106-63.714t-42-117.429v-2.286q38.857 21.714 83.429 23.429-37.714-25.143-60-65.714t-22.286-88q0-50.286 25.143-93.143 69.143 85.143 168.286 136.286t212.286 56.857q-4.571-21.714-4.571-42.286 0-76.571 54-130.571t130.571-54q80 0 134.857 58.286 62.286-12 117.143-44.571-21.143 65.714-81.143 101.714 53.143-5.714 106.286-28.571z"></path>
        </symbol>
        <symbol id="icon-facebook" viewBox="0 0 585 1024">
            <title>facebook</title>
            <path class="path1" d="M548 6.857v150.857h-89.714q-49.143 0-66.286 20.571t-17.143 61.714v108h167.429l-22.286 169.143h-145.143v433.714h-174.857v-433.714h-145.714v-169.143h145.714v-124.571q0-106.286 59.429-164.857t158.286-58.571q84 0 130.286 6.857z"></path>
        </symbol>
        <symbol id="icon-arrow-right" viewBox="0 0 10 15">
            <title>arrow right</title>
            <g id="Page-1" stroke="none" stroke-width="1" fill="none" fill-rule="evenodd">
                <g id="arrow-right" transform="translate(1.000000, 1.000000)" fill="#000000">
                    <path d="M-0.132807423,0.573147717 L7.26719258,7.17314772 L7.34644661,7.25355339 L7.7,6.9 L7.36719258,6.52685228 L-0.0328074235,13.1268523 L0.632807423,13.8731477 L8.03280742,7.27314772 L8.42788659,6.92077981 L8.05355339,6.54644661 L7.95355339,6.44644661 L0.532807423,-0.173147717 L-0.132807423,0.573147717 L-0.132807423,0.573147717 Z" id="Shape"></path>
                </g>
            </g>
        </symbol>
        <symbol id="icon-arrow-left" viewBox="0 0 10 15">
            <title>arrow left</title>
            <g id="Page-1" stroke="none" stroke-width="1" fill="none" fill-rule="evenodd">
                <g id="arrow-left" transform="translate(5.000000, 7.500000) scale(-1, 1) translate(-5.000000, -7.500000)" fill="#000000">
                    <path d="M0.867192577,1.57314772 L8.26719258,8.17314772 L8.34644661,8.25355339 L8.7,7.9 L8.36719258,7.52685228 L0.967192577,14.1268523 L1.63280742,14.8731477 L9.03280742,8.27314772 L9.42788659,7.92077981 L9.05355339,7.54644661 L8.95355339,7.44644661 L1.53280742,0.826852283 L0.867192577,1.57314772 L0.867192577,1.57314772 Z" id="Shape"></path>
                </g>
            </g>
        </symbol>
        <symbol id="icon-envelope" viewBox="0 0 1024 1024">
            <title>envelope</title>
            <path class="path1" d="M1024 405.714v453.714q0 37.714-26.857 64.571t-64.571 26.857h-841.143q-37.714 0-64.571-26.857t-26.857-64.571v-453.714q25.143 28 57.714 49.714 206.857 140.571 284 197.143 32.571 24 52.857 37.429t54 27.429 62.857 14h1.143q29.143 0 62.857-14t54-27.429 52.857-37.429q97.143-70.286 284.571-197.143 32.571-22.286 57.143-49.714zM1024 237.714q0 45.143-28 86.286t-69.714 70.286q-214.857 149.143-267.429 185.714-5.714 4-24.286 17.429t-30.857 21.714-29.714 18.571-32.857 15.429-28.571 5.143h-1.143q-13.143 0-28.571-5.143t-32.857-15.429-29.714-18.571-30.857-21.714-24.286-17.429q-52-36.571-149.714-104.286t-117.143-81.429q-35.429-24-66.857-66t-31.429-78q0-44.571 23.714-74.286t67.714-29.714h841.143q37.143 0 64.286 26.857t27.143 64.571z"></path>
        </symbol>
        <symbol id="icon-arrow-right-2" viewBox="0 0 14.3 11">
            <title>arrow right 2</title>
            <g>
                <path d="M10.7,6.5H0V4.6h10.7L6.1,0h2.7l5.5,5.5L8.8,11H6.1L10.7,6.5z"/>
            </g>
        </symbol>
        <symbol id="icon-close" viewBox="0 0 64 64">
            <g>
                <path fill="#1D1D1B" d="M28.941,31.786L0.613,60.114c-0.787,0.787-0.787,2.062,0,2.849c0.393,0.394,0.909,0.59,1.424,0.59   c0.516,0,1.031-0.196,1.424-0.59l28.541-28.541l28.541,28.541c0.394,0.394,0.909,0.59,1.424,0.59c0.515,0,1.031-0.196,1.424-0.59   c0.787-0.787,0.787-2.062,0-2.849L35.064,31.786L63.41,3.438c0.787-0.787,0.787-2.062,0-2.849c-0.787-0.786-2.062-0.786-2.848,0   L32.003,29.15L3.441,0.59c-0.787-0.786-2.061-0.786-2.848,0c-0.787,0.787-0.787,2.062,0,2.849L28.941,31.786z"/>
            </g>
        </symbol>

    </defs>
</svg>
