<svg xmlns="http://www.w3.org/2000/svg" style="display: none;"><symbol id="twitter" viewBox="0 0 512.002 512.002"><title>twitter</title><path d="M512.002,97.211c-18.84,8.354-39.082,14.001-60.33,16.54c21.686-13,38.342-33.585,46.186-58.115 c-20.299,12.039-42.777,20.78-66.705,25.49c-19.16-20.415-46.461-33.17-76.674-33.17c-58.011,0-105.042,47.029-105.042,105.039 c0,8.233,0.929,16.25,2.72,23.939c-87.3-4.382-164.701-46.2-216.509-109.753c-9.042,15.514-14.223,33.558-14.223,52.809 c0,36.444,18.544,68.596,46.73,87.433c-17.219-0.546-33.416-5.271-47.577-13.139c-0.01,0.438-0.01,0.878-0.01,1.321 c0,50.894,36.209,93.348,84.261,103c-8.813,2.399-18.094,3.687-27.674,3.687c-6.769,0-13.349-0.66-19.764-1.888 c13.368,41.73,52.16,72.104,98.126,72.949c-35.95,28.176-81.243,44.967-130.458,44.967c-8.479,0-16.84-0.496-25.058-1.471 c46.486,29.807,101.701,47.197,161.021,47.197c193.211,0,298.868-160.062,298.868-298.872c0-4.554-0.104-9.084-0.305-13.59 C480.111,136.775,497.92,118.275,512.002,97.211z" fill="#000000"/></symbol><symbol id="facebook" viewBox="0 0 512 512"><title>facebook</title><path d="M296.296,512H200.36V256h-64v-88.225l64-0.029l-0.104-51.976C200.256,43.794,219.773,0,304.556,0h70.588v88.242h-44.115 c-33.016,0-34.604,12.328-34.604,35.342l-0.131,44.162h79.346l-9.354,88.225L296.36,256L296.296,512z" fill="#000000"/></symbol><symbol id="new-email-envelope" viewBox="0 0 437.676 437.676"><title>new-email-envelope</title><polygon points="218.841,256.659 19.744,81.824 417.931,81.824 " fill="#000000"/><polygon points="139.529,218.781 0,341.311 0,96.252 " fill="#000000"/><polygon points="157.615,234.665 218.841,288.427 280.055,234.665 418.057,355.852 19.619,355.852 " fill="#000000"/><polygon points="298.141,218.787 437.676,96.252 437.676,341.311 " fill="#000000"/></symbol><symbol id="electric-car" viewBox="0 0 204.106 204.106"><title>electric-car</title><path d="M153.045,188.446c-9.525,0-17.393-7.236-18.393-16.5H58.184c-1,9.264-8.867,16.5-18.393,16.5s-17.393-7.236-18.393-16.5H2 c-1.104,0-2-0.896-2-2v-6c0-20.126,16.374-36.5,36.5-36.5h0.934c9.185-24.883,32.941-41.5,59.566-41.5s50.381,16.617,59.566,41.5 H159c11.155,0,21.158,5.031,27.859,12.942l8.612-8.612c2.989-2.989,4.636-6.964,4.636-11.191v-14.812 c0-8.728-7.1-15.828-15.827-15.828h-16.845c-10.119,0-18.351-8.232-18.351-18.351V47.724c-4.975-0.94-8.75-5.319-8.75-10.563v-6.917 H137.5c-1.104,0-2-0.896-2-2s0.896-2,2-2h6.333v-8.583c0-1.104,0.896-2,2-2s2,0.896,2,2v8.583h6.5v-8.583c0-1.104,0.896-2,2-2 s2,0.896,2,2v8.583h6.333c1.104,0,2,0.896,2,2s-0.896,2-2,2h-2.833v6.917c0,5.244-3.775,9.624-8.75,10.563v23.871 c0,7.913,6.438,14.351,14.351,14.351h16.845c10.933,0,19.827,8.895,19.827,19.828v14.812c0,5.296-2.063,10.275-5.808,14.02 l-9.003,9.003c3.917,5.815,6.205,12.814,6.205,20.337v6c0,1.104-0.896,2-2,2h-22.062 C170.438,181.21,162.571,188.446,153.045,188.446z M138.545,169.946c0,7.995,6.505,14.5,14.5,14.5s14.5-6.505,14.5-14.5 s-6.505-14.5-14.5-14.5S138.545,161.95,138.545,169.946z M25.292,169.946c0,7.995,6.505,14.5,14.5,14.5s14.5-6.505,14.5-14.5 s-6.505-14.5-14.5-14.5S25.292,161.95,25.292,169.946z M171.438,167.946H191.5v-4c0-17.92-14.58-32.5-32.5-32.5h-3.844 c-0.854,0-1.614-0.542-1.891-1.35c-8.258-24.015-30.869-40.15-56.265-40.15s-48.007,16.135-56.265,40.15 c-0.277,0.808-1.037,1.35-1.891,1.35H36.5c-17.92,0-32.5,14.58-32.5,32.5v4h17.399c1-9.264,8.867-16.5,18.393-16.5 s17.393,7.236,18.393,16.5h76.469c1-9.264,8.867-16.5,18.393-16.5S170.438,158.681,171.438,167.946z M144.333,30.244v6.917 c0,3.722,3.028,6.75,6.75,6.75s6.75-3.028,6.75-6.75v-6.917H144.333z M145.417,130.946H48.083c-1.104,0-2-0.896-2-2s0.896-2,2-2 H95.75V96.911c0-1.104,0.896-2,2-2s2,0.896,2,2v30.035h45.667c1.104,0,2,0.896,2,2S146.521,130.946,145.417,130.946z" fill="#000000"/></symbol><symbol id="transport" viewBox="0 0 211.301 211.301"><title>transport</title><g> <path d="M36.156,112.996c-10.5,0-19.047,8.557-19.047,19.054c0,10.493,8.546,19.036,19.047,19.036 c7.634,0,14.512-4.545,17.515-11.57c0.132-0.297,0.1-0.648-0.079-0.92c-0.183-0.279-0.494-0.447-0.82-0.447H31.829v-9.144h21.92 c0.301,0,0.583-0.14,0.773-0.369c0.19-0.236,0.254-0.544,0.19-0.834C52.722,119.084,45.088,112.996,36.156,112.996z M30.852,127.043c-0.544,0-0.988,0.437-0.988,0.981v11.109c0,0.544,0.444,0.991,0.988,0.991h20.353 c-2.96,5.508-8.711,9.001-15.045,9.001c-9.412,0-17.075-7.659-17.075-17.075c0-9.423,7.662-17.078,17.075-17.078 c7.591,0,14.133,4.903,16.316,12.071H30.852z" fill="#000000"/> <path d="M36.156,151.58c-10.772,0-19.537-8.765-19.537-19.53c0-10.783,8.765-19.544,19.537-19.544 c9.169,0,16.985,6.245,19.032,15.185c0.1,0.447-0.004,0.902-0.29,1.256c-0.272,0.344-0.705,0.551-1.152,0.551H32.323v8.156h20.45 c0.49,0,0.956,0.247,1.228,0.669c0.276,0.412,0.322,0.941,0.122,1.389C51.047,146.92,43.99,151.58,36.156,151.58z M36.156,113.486c-10.228,0-18.556,8.324-18.556,18.563c0,10.221,8.324,18.549,18.556,18.549c7.44,0,14.133-4.42,17.064-11.273 c0.061-0.147,0.043-0.326-0.039-0.465c-0.089-0.129-0.243-0.222-0.408-0.222H31.338v-10.121h22.411 c0.154,0,0.293-0.072,0.387-0.186c0.097-0.122,0.132-0.272,0.097-0.422C52.293,119.42,44.859,113.486,36.156,113.486z M36.156,149.615c-9.681,0-17.569-7.881-17.569-17.565c0-9.695,7.888-17.572,17.569-17.572c7.78,0,14.53,4.996,16.781,12.415 l0.193,0.641H30.845c-0.272,0-0.49,0.222-0.49,0.494v11.109c0,0.272,0.218,0.494,0.49,0.494h21.176l-0.387,0.727 C48.571,146.061,42.64,149.615,36.156,149.615z M36.156,115.458c-9.148,0-16.584,7.44-16.584,16.592 c0,9.133,7.44,16.584,16.584,16.584c5.844,0,11.202-3.056,14.201-8.02H30.848c-0.816,0-1.485-0.669-1.485-1.482v-11.109 c0-0.816,0.669-1.482,1.485-1.482h20.943C49.476,119.885,43.277,115.458,36.156,115.458z" fill="#000000"/> </g><path d="M181.085,101.834c-3.758,0-7.419,0.694-10.905,2.047l-1.661-2.706l19.881-2.648 c0.268-0.036,6.621-0.859,7.465-5.597c1.51-8.396-16.23-21.953-54.23-41.465c-3.482-1.618-6.02-2.409-7.759-2.409 c-2.076,0-2.863,1.117-3.142,1.772c-1.535,3.536,5.368,12.834,12.154,20.75c-7.458-3.965-19.626-9.291-31.125-9.291 c-5.791,0-10.844,1.356-15.024,4.033c-3.31,2.115-7.53,7.684-12.562,16.563c-0.222-0.351-0.583-0.598-0.991-0.669l-29.876-5.29 l-4.166-12.494c-0.165-0.508-0.594-0.877-1.12-0.988c-0.573-0.107-14.176-2.745-26.419-2.745c-13.485,0-20.736,3.139-21.559,9.33 c-1.929,14.577,58.808,33.91,71.724,37.846c-3.021,6.75-5.418,12.494-6.671,15.582c-3.761-12.615-15.7-21.627-28.931-21.627 c-16.652,0-30.206,13.557-30.206,30.216c0,16.652,13.553,30.198,30.206,30.198c13.328,0,25.174-8.876,28.942-21.634h71.391 c0.483,0,0.948-0.243,1.224-0.651l21.96-32.26l1.181,1.915c-6.345,5.73-9.974,13.879-9.974,22.432 c0,16.652,13.553,30.198,30.205,30.198c16.656,0,30.206-13.542,30.206-30.198C211.294,115.39,197.741,101.834,181.085,101.834z M21.6,63.654c10.508,0,22.121,2.004,25.016,2.534L50.786,78.7c0.175,0.508,0.605,0.888,1.142,0.984l28.856,5.103l-9.14,19.97 C43.209,95.982,1.738,79.702,2.969,70.429C3.717,64.828,13.516,63.654,21.6,63.654z M181.085,159.299 c-15.031,0-27.257-12.229-27.257-27.249c0-8.138,3.604-15.801,9.881-21.001c0.558-0.465,0.694-1.288,0.319-1.911l-3.035-4.924 c-0.272-0.429-0.723-0.691-1.238-0.701h-0.029c-0.483,0-0.938,0.24-1.22,0.648l-22.801,33.498H63.978 c-0.676,0-1.263,0.458-1.428,1.117c-3.081,12.082-13.929,20.528-26.39,20.528c-15.028,0-27.249-12.229-27.249-27.249 c0-15.035,12.222-27.26,27.249-27.26c13.489,0,25.077,10.074,26.952,23.434c0.104,0.727,0.737,1.27,1.464,1.27h0.283 c0.619,0,1.181-0.394,1.396-0.981c0.186-0.519,20.6-52.362,32.074-59.713c3.697-2.369,8.213-3.572,13.435-3.572 c17.74,0,37.635,13.628,37.836,13.764c0.587,0.415,1.474,0.308,1.958-0.254c0.49-0.576,0.469-1.421-0.047-1.968 c-10.683-11.374-18.954-22.719-18.13-24.694c0.104-0.061,1.296-0.591,6.964,2.04c14.222,7.301,25.782,13.897,34.396,19.619 c-2.24,0.161-3.876,0.956-4.874,2.362c-3.59,5.057,2.273,16.048,5.404,21.198l-9.398,1.256c-0.501,0.064-0.92,0.376-1.138,0.823 c-0.211,0.455-0.186,0.984,0.079,1.414l3.514,5.712c0.387,0.612,1.231,0.87,1.857,0.58c3.45-1.521,7.118-2.29,10.905-2.29 c15.024,0,27.253,12.225,27.253,27.26C208.338,147.07,196.109,159.299,181.085,159.299z M178.479,96.866 c-3.321-5.229-8.675-15.589-6.213-19.065c0.58-0.798,1.704-1.21,3.361-1.21c1.138,0,2.509,0.193,4.073,0.58 c12.304,8.926,13.592,13.371,13.267,15.228c-0.462,2.588-4.885,3.189-4.942,3.196L178.479,96.866z" fill="#000000"/><g> <path d="M181.085,112.996c-2.069,0-4.134,0.354-6.134,1.034c-0.286,0.097-0.512,0.319-0.608,0.598 c-0.104,0.279-0.072,0.598,0.086,0.848l8.707,14.144L178,132.787l-8.715-14.151c-0.15-0.254-0.415-0.419-0.712-0.455 c-0.29-0.054-0.601,0.061-0.812,0.268c-3.69,3.618-5.723,8.45-5.723,13.6c0,10.493,8.543,19.036,19.039,19.036 c10.497,0,19.043-8.546,19.043-19.036C200.128,121.549,191.585,112.996,181.085,112.996z M181.085,149.121 c-9.416,0-17.071-7.659-17.071-17.075c0-4.202,1.507-8.167,4.27-11.288l8.55,13.897c0.14,0.222,0.361,0.383,0.616,0.437 c0.243,0.064,0.526,0.018,0.744-0.111l6.807-4.194c0.469-0.29,0.616-0.895,0.329-1.36l-8.557-13.897 c1.417-0.376,2.859-0.562,4.309-0.562c9.412,0,17.071,7.659,17.071,17.078C198.156,141.466,190.497,149.121,181.085,149.121z" fill="#000000"/> <path d="M181.085,151.58c-10.769,0-19.533-8.765-19.533-19.53c0-5.282,2.079-10.236,5.873-13.947 c0.326-0.326,0.773-0.494,1.238-0.412c0.419,0.054,0.816,0.308,1.052,0.691l8.446,13.732l4.298-2.648l-8.443-13.732 c-0.229-0.376-0.283-0.841-0.136-1.27c0.154-0.419,0.494-0.755,0.92-0.895c2.047-0.701,4.166-1.059,6.288-1.059 c10.772,0,19.533,8.761,19.533,19.544C200.618,142.815,191.857,151.58,181.085,151.58z M168.48,118.665 c-0.165,0-0.279,0.054-0.361,0.129c-3.6,3.536-5.583,8.239-5.583,13.256c0,10.221,8.314,18.549,18.549,18.549 c10.225,0,18.549-8.324,18.549-18.549c0-10.236-8.321-18.563-18.549-18.563c-2.015,0-4.026,0.344-5.977,1.006 c-0.14,0.047-0.251,0.161-0.301,0.301c-0.054,0.14-0.036,0.297,0.043,0.419l8.961,14.573l-5.97,3.672l-8.969-14.562 c-0.082-0.129-0.211-0.218-0.365-0.233h-0.029V118.665z M181.085,149.615c-9.688,0-17.561-7.881-17.561-17.565 c0-4.287,1.56-8.414,4.398-11.613l0.44-0.501l8.897,14.466c0.072,0.104,0.179,0.186,0.308,0.222 c0.197,0.007,0.293-0.018,0.369-0.064l6.814-4.194c0.115-0.072,0.197-0.175,0.222-0.308c0.032-0.122,0.011-0.251-0.057-0.369 l-8.901-14.466l0.641-0.168c1.457-0.383,2.949-0.58,4.434-0.58c9.688,0,17.565,7.877,17.565,17.572 C198.65,141.734,190.773,149.615,181.085,149.615z M168.219,121.592c-2.398,2.949-3.718,6.635-3.718,10.457 c0,9.133,7.44,16.584,16.584,16.584c9.148,0,16.577-7.451,16.577-16.584c0-9.151-7.43-16.592-16.577-16.592 c-1.177,0-2.362,0.132-3.532,0.387l8.199,13.328c0.208,0.333,0.268,0.737,0.175,1.117c-0.093,0.383-0.326,0.709-0.666,0.913 l-6.811,4.202c-0.326,0.193-0.744,0.261-1.12,0.175c-0.372-0.086-0.694-0.326-0.909-0.658L168.219,121.592z" fill="#000000"/> </g></symbol><symbol id="cabriolet" viewBox="0 0 433.758 433.758"><title>cabriolet</title><path d="M237.598,306.044c-5.553-3.209-15.284,0.67-23.14,14.274c-2.938,5.087-4.82,10.448-5.304,15.097 c-0.808,7.778,2.48,10.907,4.512,12.08c1.208,0.698,2.613,1.06,4.154,1.06c5.544,0,12.839-4.688,18.985-15.334 c2.938-5.087,4.82-10.448,5.304-15.097C242.918,310.345,239.629,307.216,237.598,306.044z M234.152,317.298 c-0.364,3.502-1.922,7.848-4.274,11.923c-5.141,8.905-11.153,11.947-12.212,11.347c-0.147-0.085-0.874-1.244-0.554-4.326 c0.363-3.503,1.921-7.849,4.273-11.923c4.723-8.181,10.183-11.421,11.859-11.421c0.148,0,0.267,0.025,0.353,0.075 C233.745,313.056,234.473,314.216,234.152,317.298z" fill="#000000"/><path d="M404.265,209.145c-5.55-3.202-15.283,0.67-23.14,14.275c-7.855,13.606-6.345,23.972-0.792,27.178 c1.208,0.698,2.613,1.06,4.154,1.06c5.544,0,12.84-4.688,18.985-15.334C411.328,222.718,409.817,212.352,404.265,209.145z M396.545,232.324c-5.143,8.906-11.154,11.96-12.212,11.347c-1.057-0.61-1.42-7.346,3.72-16.25 c5.14-8.9,11.155-11.956,12.213-11.347C401.322,216.684,401.686,223.42,396.545,232.324z" fill="#000000"/><path d="M433.758,137.526c0-1.429-0.762-2.748-1.998-3.463l-135.69-78.439c-1.238-0.717-2.766-0.717-4.004,0l-72.772,42.069 l-10.341-5.978c-9.421-5.447-22.169,2.438-33.415,9.392c-0.854,0.528-1.688,1.042-2.511,1.545c-4.567,2.474-7.847,6.69-9.107,11.81 c-0.021,0.085-3.393,19.051-3.393,19.051s-40.955-23.827-41.893-24.106c-1.707-0.508-4.161-0.574-5.367,1.462l-25.192,62.313 L1.291,235.178C0.469,235.936,0,237.004,0,238.122v58.01c0,1.429,0.763,2.75,2,3.464l136.05,78.54c0.619,0.357,1.31,0.536,2,0.536 s2.32-0.548,2.32-0.548l47.466-27.772c1.58,8.167,5.65,14.441,11.794,17.987c3.47,2.004,7.36,3.001,11.508,3.001 c4.979,0,10.328-1.439,15.753-4.303c9.341-4.931,17.926-13.606,24.175-24.43c6.249-10.822,9.47-22.596,9.069-33.15 c-0.011-0.287-0.036-0.566-0.052-0.85l94.46-54.63c1.626,7.673,5.565,13.892,11.754,17.465c3.552,2.051,7.484,3.024,11.603,3.024 c13.723-0.001,29.481-10.827,39.833-28.756c9.652-16.718,11.604-34.416,6.262-46.366l6.976-9.442 c0.509-0.688,0.783-1.521,0.783-2.377V137.57C433.755,137.555,433.758,137.541,433.758,137.526z M294.067,63.707l127.699,73.82 l-43.891,25.384L250.164,89.087L294.067,63.707z M242.172,93.708l127.714,73.825l-43.771,25.315l0.023-5.218 c0.016-3.289,0.245-6.539,0.487-9.98l0.077-1.094c0.684-9.794-4.369-19.3-12.874-24.217l-86.543-50.026L242.172,93.708z M204.948,98.641l104.876,60.623c5.877,3.398,9.37,9.967,8.897,16.734l-0.076,1.087c-0.242,3.419-0.491,6.954-0.508,10.508 l-0.044,9.893l-9.786,5.66l0.011-4.452c0.009-3.294,0.238-6.552,0.481-10l0.068-0.978c0.684-9.795-4.369-19.301-12.874-24.217 l-104.876-60.624c-0.492-0.284-0.995-0.537-1.502-0.773C195.647,98.897,201.572,96.689,204.948,98.641z M171.718,116.258 c0.819-3.179,3.016-5.735,6.041-7.024c3.063-1.304,6.473-1.097,9.355,0.568l104.876,60.624c5.878,3.397,9.37,9.966,8.897,16.734 l-0.068,0.972c-0.242,3.43-0.491,6.977-0.501,10.542l-0.023,9.106l-27.601,15.963l-23.391-13.522l7.061-17.463 c0.819-2.025-0.149-4.306-2.155-5.156l-86.312-49.832L171.718,116.258z M246.275,217.709l18.429,10.654l-29.677,17.163 L246.275,217.709z M118.757,118.635l128.866,74.401l-22.499,55.645L96.289,174.208L118.757,118.635z M91.411,180.629 l128.436,74.242l-80.017,57.046L11.749,237.43L91.411,180.629z M189.11,341.51l-45.06,26.364v-12.018l46.822-27.082 C189.778,333.092,189.179,337.377,189.11,341.51z M83.348,325.612v11.707l-32-18.473v-11.844L83.348,325.612z M24.551,282.164 v-9.045l94.797,55.13v9.045L24.551,282.164z M8,244.505l8.551,4.973v28.034L8,272.539V244.505z M119.348,318.994l-94.797-55.129 v-9.734l94.797,55.129V318.994z M127.348,313.912l8.702,5.061v28.034l-8.702-5.061V313.912z M8,281.793l35.348,20.557v11.878 L8,293.822V281.793z M91.348,341.938v-11.673l44.702,25.997v11.483L91.348,341.938z M246.139,338.608 c-5.505,9.534-12.957,17.118-20.981,21.354c-7.424,3.919-14.358,4.433-19.526,1.449c-5.169-2.984-8.19-9.247-8.509-17.635 c-0.344-9.067,2.499-19.313,8.004-28.847s12.956-17.118,20.98-21.354c4.239-2.238,8.318-3.365,12.001-3.365 c2.766,0,5.309,0.636,7.525,1.916c5.169,2.984,8.19,9.247,8.509,17.635C254.485,318.829,251.643,329.074,246.139,338.608z M355.698,245.225l-94.997,54.94c-1.927-6.695-5.706-11.871-11.068-14.967c-7.636-4.409-17.317-3.946-27.261,1.302 c-9.341,4.931-17.926,13.606-24.174,24.43c-1.181,2.045-2.252,4.123-3.213,6.221l-50.936,29.461v-27.881l85.057-60.638 l196.648-113.631v41.746l-4.458,6.035c-1.46-1.533-3.124-2.861-4.997-3.942c-15.386-8.883-37.978,2.42-51.435,25.731 C358.76,224.607,355.745,235.569,355.698,245.225z M412.806,241.712c-10.842,18.777-29.39,29.221-40.508,22.804 c-11.115-6.418-11.347-27.704-0.505-46.482c8.668-15.015,22.264-24.699,33.048-24.699c2.703,0,5.23,0.609,7.459,1.896 C423.415,201.647,423.646,222.933,412.806,241.712z" fill="#000000"/></symbol><symbol id="trailer-1" viewBox="0 0 474.377 474.377"><title>trailer-1</title><path d="M474.377,88.604c0-1.428-0.762-2.749-2-3.464l-84.648-48.872c-1.237-0.715-2.761-0.714-3.998-0.002L64.312,220.416 c-1.238,0.715-2.001,2.035-2.002,3.465c0,0,0,0.001,0,0.001l0,0v26.284L11.39,279.183c-1.056,0.602-1.765,1.645-1.96,2.822 l-9.235,55.621C0.072,338.013,0,338.419,0,338.836v46.946c0,1.429,0.763,2.75,2,3.464l84.642,48.863c0.619,0.357,1.31,0.536,2,0.536 s1.381-0.179,2-0.536c0.008-0.005,37.078-21.063,37.078-21.063c0.686,5.086,3.047,9.289,7.05,11.6 c2.072,1.196,4.362,1.765,6.749,1.765c7.593,0,16.155-5.756,21.702-15.362c3.31-5.734,5.015-12.003,4.801-17.651 c-0.044-1.169-0.194-2.271-0.395-3.336l67.988-39.249c0.796,4.793,3.137,8.731,6.968,10.943c2.072,1.196,4.362,1.765,6.749,1.765 c7.593-0.001,16.155-5.756,21.702-15.362c2.265-3.922,3.757-8.092,4.418-12.145c1.171,1.896,2.711,3.48,4.654,4.603 c2.072,1.196,4.362,1.765,6.749,1.765c7.593,0,16.155-5.756,21.702-15.362c3.311-5.733,5.016-12.003,4.802-17.651 c-0.043-1.124-0.185-2.184-0.372-3.212l4.379-2.527c1.238-0.715,2-2.035,2-3.465V277.99l24.666-14.219 c0,0,22.98,13.193,23.057,13.237c0.616,0.353,1.303,0.529,1.989,0.529c0.699,0,1.398-0.183,2.022-0.549l7.657-4.487 c0.815,4.924,3.209,8.745,6.94,10.9c2.051,1.185,4.334,1.774,6.751,1.774c2.811,0,5.801-0.798,8.813-2.388 c4.999-2.64,9.575-7.251,12.885-12.984c2.323-4.023,3.788-8.163,4.438-12.103c1.182,1.898,2.724,3.458,4.635,4.561 c2.051,1.185,4.334,1.774,6.751,1.774c2.811,0,5.801-0.798,8.813-2.388c4.999-2.64,9.576-7.251,12.886-12.984 c4.152-7.192,5.58-14.762,4.448-20.875l4.36-2.516c1.238-0.715,2-2.035,2-3.465v-26.32l9.896-5.705 c1.239-0.715,2.002-2.036,2.002-3.466L474.377,88.604L474.377,88.604z M385.728,44.35l76.646,44.251L150.952,268.128l-76.638-44.244 L385.728,44.35z M70.31,230.81l76.641,44.246v19.397L70.31,250.2V230.81z M66.281,257.112l76.614,44.237l-44.87,25.563 l-76.615-44.23L66.281,257.112z M63.415,415.465l-34.188-19.738v-14.952l34.188,19.737V415.465z M69.415,394.739l-42.188-24.355 c-1.238-0.715-2.763-0.715-4,0c-1.238,0.714-2,2.035-2,3.464v0.165L8,366.059v-20.295l76.642,44.249l-0.001,21.128l-13.226-7.956 v-4.982C71.415,396.775,70.652,395.453,69.415,394.739z M92.084,343.275l-77.311-44.633l1.598-9.633l77.256,44.601L92.084,343.275z M90.733,351.732l-4.761,29.811l-77.528-44.76l4.93-29.712L90.733,351.732z M101.659,334.049l10.813-6.16v41.463l-18.123,10.464 L101.659,334.049z M8,375.394l13.227,7.954v7.761L8,383.473V375.394z M71.415,420.084v-7.562l13.226,7.955l0,7.242L71.415,420.084z M132.321,397.209C132.32,397.209,132.32,397.209,132.321,397.209c-1.979,3.428-3.32,6.938-4.081,10.341l-35.597,20.22v-37.732 l25.83-14.913c1.238-0.714,2-2.035,2-3.464v-48.33l26.478-15.085v75.153c-0.58,0.248-1.161,0.519-1.744,0.826 C140.208,386.864,135.631,391.476,132.321,397.209z M156.292,411.049c-5.305,9.186-13.493,12.997-17.522,10.67 c-4.03-2.327-4.825-11.323,0.479-20.51h0c2.53-4.381,6.063-7.993,9.693-9.909c1.785-0.942,5.175-2.291,7.83-0.761 c2.655,1.533,3.179,5.145,3.256,7.161C160.182,401.803,158.821,406.668,156.292,411.049z M160.771,383.612 c-1.785-1.031-3.749-1.604-5.821-1.737v-9.103l42.512-24.507V367.6L164.36,386.71C163.349,385.473,162.164,384.415,160.771,383.612z M264.104,348.158c-5.305,9.186-13.492,12.995-17.522,10.67c-4.03-2.327-4.825-11.323,0.479-20.51h0 c2.529-4.381,6.062-7.993,9.692-9.909c1.202-0.635,3.131-1.454,5.074-1.454c0.942,0,1.888,0.193,2.755,0.693 c2.655,1.533,3.18,5.145,3.256,7.161C267.995,338.912,266.634,343.778,264.104,348.158z M301.627,327.019 c-5.305,9.186-13.492,12.995-17.522,10.67c-4.031-2.327-4.825-11.323,0.479-20.51h0c2.529-4.381,6.062-7.993,9.692-9.909 c1.202-0.635,3.131-1.454,5.074-1.454c0.942,0,1.888,0.193,2.755,0.693c2.655,1.533,3.18,5.145,3.256,7.161 C305.518,317.773,304.157,322.638,301.627,327.019z M311.365,301.854l-1.592,0.919c-1.026-1.278-2.238-2.367-3.666-3.192 c-4.436-2.563-9.963-2.344-15.565,0.613c-4.999,2.64-9.575,7.251-12.886,12.984h0c-2.012,3.484-3.363,7.053-4.117,10.508 l-1.001,0.578c-1.079-1.439-2.394-2.643-3.954-3.544c-4.436-2.562-9.963-2.344-15.565,0.613c-4.999,2.64-9.575,7.251-12.885,12.984 c-2.126,3.682-3.519,7.461-4.242,11.097l-30.43,17.567v-19.33l105.902-61.051V301.854z M352.036,259.155l13.04-7.517v15.046 L352.036,259.155z M407.218,265.803c-2.529,4.381-6.062,7.993-9.692,9.909c-1.785,0.942-5.174,2.292-7.83,0.761 c-2.655-1.533-3.18-5.145-3.256-7.161c-0.156-4.103,1.206-8.968,3.735-13.349c5.305-9.186,13.491-12.996,17.522-10.67 C411.728,247.62,412.522,256.616,407.218,265.803z M444.742,244.663c-2.53,4.381-6.063,7.993-9.693,9.909 c-1.785,0.941-5.174,2.292-7.83,0.761c-2.655-1.533-3.179-5.145-3.256-7.161c-0.155-4.103,1.206-8.968,3.735-13.349h0 c5.305-9.186,13.491-12.998,17.522-10.67C449.25,226.481,450.045,235.477,444.742,244.663z M454.479,219.498l-1.595,0.92 c-1.016-1.27-2.225-2.362-3.663-3.193c-8.664-5.002-21.16,0.973-28.45,13.598h0c-1.959,3.394-3.34,6.975-4.109,10.504l-1.007,0.581 c-1.068-1.429-2.383-2.635-3.956-3.543c-8.664-5.002-21.16,0.973-28.45,13.598c-2.075,3.593-3.518,7.396-4.254,11.126l-5.917,3.467 v-19.53l81.402-46.927V219.498z M154.95,363.537v-88.48L466.377,95.527v88.478L154.95,363.537z" fill="#000000"/></symbol><symbol id="hatchback" viewBox="0 0 444.111 444.111"><title>hatchback</title><path d="M237.598,327.53c-5.549-3.204-15.284,0.668-23.14,14.275h0c-7.855,13.606-6.345,23.971-0.792,27.177 c0.938,0.541,2.37,1.106,4.264,1.106c2.209,0,5.045-0.769,8.454-3.24c3.784-2.742,7.485-7.054,10.422-12.141 c2.938-5.087,4.82-10.448,5.304-15.096C242.917,331.833,239.629,328.704,237.598,327.53z M234.152,338.784 c-0.364,3.503-1.922,7.849-4.274,11.923s-5.337,7.597-8.188,9.664c-2.511,1.82-3.874,1.768-4.023,1.683 c-1.057-0.61-1.42-7.345,3.72-16.249c5.141-8.905,11.158-11.957,12.212-11.346C233.746,334.544,234.472,335.702,234.152,338.784z" fill="#000000"/><path d="M404.265,230.634c-2.031-1.174-6.387-2.456-12.718,2.133c-3.784,2.742-7.485,7.054-10.422,12.141 c-2.938,5.086-4.821,10.448-5.304,15.096c-0.809,7.778,2.479,10.908,4.511,12.081c0.938,0.542,2.37,1.106,4.264,1.106 c2.209,0,5.045-0.769,8.454-3.24c3.784-2.742,7.485-7.054,10.422-12.141c2.938-5.086,4.821-10.448,5.304-15.096 C409.584,234.936,406.296,231.807,404.265,230.634z M400.819,241.888c-0.363,3.502-1.922,7.848-4.274,11.923 s-5.337,7.597-8.188,9.664c-2.509,1.818-3.875,1.766-4.023,1.683c-0.147-0.085-0.874-1.244-0.554-4.326 c0.363-3.502,1.922-7.848,4.274-11.922c0,0,0,0,0,0c2.353-4.075,5.337-7.597,8.188-9.664c2.015-1.459,3.292-1.715,3.794-1.715 c0.124,0,0.2,0.015,0.229,0.032C400.413,237.647,401.139,238.805,400.819,241.888z" fill="#000000"/><polygon points="15.017,289.059 36.017,301.279 36.017,289.709 15.017,277.489 " fill="#000000"/><polygon points="108.017,332.489 108.017,344.059 129.017,356.279 129.017,344.709 " fill="#000000"/><path d="M442.957,162.511l-37.96-38.423c-0.329-0.396-0.732-0.729-1.188-0.974c-0.215-0.116-135.543-78.621-135.543-78.621 c-1.237-0.719-2.763-0.722-4.004-0.008L114.98,130.388c-0.775,0.446-1.378,1.139-1.713,1.968l-25.192,62.313L1.289,256.668 C0.467,257.425,0,258.491,0,259.609v58.01c0,1.429,0.763,2.75,2,3.464l136.05,78.54c0.619,0.357,1.31,0.536,2,0.536 s2.32-0.547,2.32-0.547l47.467-27.772c1.58,8.166,5.65,14.44,11.794,17.987c3.47,2.004,7.361,3.001,11.508,3.001 c4.979,0,10.328-1.439,15.753-4.303c9.341-4.931,17.926-13.606,24.174-24.429c6.715-11.631,9.702-23.735,9.101-34.049 l94.441-54.619c1.646,7.928,5.67,14.027,11.69,17.502c3.47,2.004,7.36,3.001,11.508,3.001c4.979,0,10.328-1.439,15.753-4.303 c9.341-4.931,17.926-13.606,24.174-24.429c6.652-11.523,9.642-23.508,9.112-33.759l13.229-7.449 c1.259-0.708,2.037-2.041,2.037-3.485v-57.183C444.111,164.27,443.696,163.26,442.957,162.511z M255.848,215.521l61.933-35.724 v39.354l-82.752,47.862L255.848,215.521z M325.781,175.182l61.53-35.492l9.066,34.003l-70.596,40.831V175.182z M403.551,169.544 l-9.064-33.993l6.745-3.891l24.661,24.962L403.551,169.544z M266.247,52.572l127.598,74.114l-141.242,81.471L124.448,134.17 L266.247,52.572z M118.757,140.121l128.866,74.401l-22.499,55.645L96.289,195.695L118.757,140.121z M91.411,202.116l128.435,74.242 l-80.017,57.046L11.749,258.917L91.411,202.116z M189.11,362.996L144.05,389.36v-12.017l46.822-27.082 C189.778,354.578,189.179,358.864,189.11,362.996z M119.447,368.094v11.553L24.36,324.754v-11.959L119.447,368.094z M8,294.026 v-28.034l128.05,74.468v28.034L8,294.026z M8,303.28l8.36,4.862v11.994L8,315.31V303.28z M127.447,384.265v-11.519l8.603,5.003 v11.482L127.447,384.265z M246.138,360.096c-5.505,9.534-12.956,17.118-20.981,21.354c-7.423,3.918-14.357,4.433-19.526,1.448 c-5.169-2.984-8.19-9.247-8.508-17.634c-0.344-9.068,2.499-19.313,8.003-28.848h0c5.504-9.535,12.956-17.119,20.98-21.354 c4.239-2.238,8.318-3.365,12-3.365c2.767,0,5.31,0.637,7.526,1.917C256.748,320.031,256.979,341.317,246.138,360.096z M412.805,263.199c-5.505,9.534-12.956,17.118-20.98,21.354c-7.424,3.918-14.358,4.433-19.526,1.448 c-5.169-2.984-8.19-9.247-8.509-17.634c-0.344-9.068,2.498-19.313,8.003-28.848s12.956-17.119,20.98-21.355 c4.239-2.237,8.318-3.365,12.001-3.365c2.766,0,5.309,0.636,7.525,1.917C423.415,223.134,423.646,244.42,412.805,263.199z M436.111,220.167l-8.616,4.852c-1.879-6.641-5.621-12.011-11.196-15.23c-7.636-4.409-17.317-3.946-27.261,1.302 c-9.341,4.931-17.926,13.607-24.174,24.43c-5.858,10.146-9.055,21.126-9.102,31.155l-95.018,54.953 c-1.905-6.508-5.619-11.77-11.113-14.941c-7.636-4.41-17.317-3.946-27.261,1.301c-9.34,4.931-17.926,13.607-24.174,24.43 c-1.181,2.045-2.253,4.124-3.213,6.222L144.05,368.1v-27.881l85.054-60.637l202.599-117.079l4.407,4.461V220.167z" fill="#000000"/></symbol><symbol id="van" viewBox="0 0 470.75 470.75"><title>van</title><path d="M417.176,276.047c-6.675-3.856-15.53,3.422-20.829,12.6h0c-5.298,9.178-7.17,20.484-0.497,24.339 c1.253,0.724,2.582,1.055,3.951,1.055c5.922,0,12.574-6.2,16.878-13.654C421.977,291.208,423.85,279.901,417.176,276.047z M409.751,296.385c-3.988,6.907-8.566,9.631-9.881,9.637c-0.652-1.143-0.583-6.469,3.405-13.376h0 c3.988-6.907,8.566-9.631,9.881-9.637C413.808,284.152,413.738,289.478,409.751,296.385z" fill="#000000"/><path d="M197.634,400.74c-1.877-1.084-5.881-2.28-11.625,1.884c-3.347,2.426-6.616,6.231-9.205,10.716 c-2.589,4.483-4.25,9.218-4.677,13.329c-0.733,7.056,2.304,9.926,4.18,11.009c1.253,0.724,2.582,1.055,3.951,1.055 c5.922,0,12.574-6.2,16.878-13.654C202.435,415.899,204.307,404.592,197.634,400.74z M190.208,421.078 c-3.988,6.907-8.566,9.631-9.881,9.637c-0.652-1.143-0.582-6.469,3.405-13.375c3.989-6.908,8.566-9.631,9.881-9.637 C194.266,408.844,194.196,414.171,190.208,421.078z" fill="#000000"/><path d="M470.75,87.093c0-1.428-0.761-2.748-1.998-3.463L346.179,12.797c-1.235-0.715-2.757-0.718-3.993-0.006 c0,0-289.469,165.986-289.859,166.381c-0.928,0.939-1.36,2.595-1.975,4.966c0,0-16.855,65.285-16.855,65.624 c0,1.429,0.763,2.75,2,3.464l18.132,10.467l-14.632,24.894L1.171,326.411C0.421,327.161,0,328.178,0,329.239v53.706 c0,1.429,0.762,2.749,1.999,3.464l122.631,70.845c0.619,0.357,1.31,0.536,2.001,0.536c0.69,0,1.381-0.179,2-0.535 c0.242-0.14,27.136-15.574,27.136-15.574c1.634,6.337,5.085,11.233,10.079,14.116c3.164,1.827,6.667,2.695,10.332,2.695 c12.121,0,25.998-9.501,35.092-25.254c5.429-9.403,8.068-19.162,8.032-27.738l155.889-88.804c1.58,6.3,4.993,11.404,10.197,14.408 c3.164,1.827,6.667,2.695,10.332,2.695c12.121,0,25.998-9.501,35.092-25.254c5.281-9.147,8.087-19.073,7.97-28.079l29.947-17.056 c1.249-0.711,2.021-2.038,2.021-3.476L470.75,87.093L470.75,87.093z M344.171,20.876l114.565,66.206l-42.088,24.163L302.075,45.046 L344.171,20.876z M365.598,140.553l-21.214-12.257l43.192-24.609l21.051,12.163L365.598,140.553z M251.027,74.356l43.027-24.705 l18.768,10.844l-43.192,24.609L251.027,74.356z M320.846,65.131l23.767,13.732l-43.192,24.609L277.654,89.74L320.846,65.131z M352.636,83.499l26.916,15.552l-43.192,24.609l-26.917-15.552L352.636,83.499z M243.006,78.961l114.57,66.197l-179.967,103.32 L63.048,182.287L243.006,78.961z M57.528,188.338l115.442,66.7l-15.396,59.418L42.118,247.81 C44.816,237.393,54.07,201.681,57.528,188.338z M158.128,324.012c1.233,0.712,2.752,0.715,3.988,0.007l30.633-17.551l-29.369,49.98 L47.681,289.599l12.877-21.907L158.128,324.012z M258.389,268.859v34.972l-82.764,47.568l31.104-52.941L258.389,268.859z M42.849,296.047l115.455,66.708l-32.635,32.644L10.208,328.688L42.849,296.047z M8,336.652l20.895,12.073v25.285L8,361.937 V336.652z M36.895,353.347l56.557,32.677v25.286l-56.557-32.678V353.347z M101.451,390.647l21.18,12.237v25.286l-21.18-12.237 V390.647z M8,380.636v-9.459l114.631,66.233v9.449L8,380.636z M204.343,429.238c-9.283,16.077-25.082,25.063-34.497,19.631 c-4.332-2.501-6.866-7.791-7.135-14.896c-0.295-7.786,2.151-16.591,6.887-24.795c7.441-12.888,19.067-21.221,28.238-21.221 c2.27,0,4.39,0.512,6.259,1.59C213.511,394.985,213.625,413.161,204.343,429.238z M348.21,252.933l-43.992,25.065v-51.997 l43.992-25.399V252.933z M304.218,287.205l43.992-25.065v60.719l-43.992,25.061V287.205z M423.885,304.546 c-9.283,16.077-25.08,25.063-34.497,19.631c-9.417-5.438-9.53-23.613-0.248-39.69c7.441-12.888,19.067-21.22,28.238-21.22 c2.27,0,4.391,0.511,6.259,1.589c4.332,2.501,6.866,7.791,7.135,14.896C431.067,287.537,428.622,296.341,423.885,304.546z M437.675,271.892c-1.65-6.263-5.084-11.104-10.038-13.964c-13.626-7.87-33.58,2.043-45.424,22.559 c-5.395,9.344-8.034,19.041-8.031,27.579l-17.971,10.237V193.674c0-1.429-0.762-2.75-2-3.464c-1.237-0.715-2.763-0.715-4,0 l-51.992,30.018c-1.238,0.714-2,2.035-2,3.464v128.786l-77.959,44.41c-1.595-6.235-4.999-11.285-10.164-14.268 c-13.625-7.869-33.58,2.042-45.424,22.559c-5.247,9.088-8.052,18.945-7.973,27.905l-24.066,13.711v-45.043l36.443-36.454 l97.308-55.685c1.242-0.713,2.007-2.036,2.007-3.468v-44.188c0-1.427-0.76-2.745-1.994-3.461s-2.756-0.72-3.995-0.01 l-94.017,53.867l14.673-56.631L462.75,94.002V257.61L437.675,271.892z" fill="#000000"/><path d="M451.778,134.498c-1.237-0.715-2.763-0.715-4,0l-51.992,30.018c-1.238,0.714-2,2.035-2,3.464v39.73 c0,1.429,0.762,2.75,2,3.464c0.619,0.357,1.31,0.536,2,0.536s1.381-0.179,2-0.536l51.992-30.018c1.238-0.714,2-2.035,2-3.464 v-39.73C453.778,136.533,453.016,135.212,451.778,134.498z M445.778,175.383l-43.992,25.399v-30.493l43.992-25.399V175.383z" fill="#000000"/><path d="M256.191,222.519c-1.237-0.715-2.763-0.715-4,0l-29.009,16.748c-1.238,0.714-2,2.035-2,3.464v22.167 c0,1.429,0.762,2.75,2,3.464c0.619,0.357,1.309,0.536,2,0.536c0.69,0,1.381-0.179,2-0.536l29.009-16.748 c1.238-0.714,2-2.035,2-3.464v-22.167C258.191,224.554,257.429,223.233,256.191,222.519z M250.191,245.841l-21.009,12.13v-12.93 l21.009-12.13V245.841z" fill="#000000"/><path d="M153.611,260.273l-85.405-49.157c-0.607-0.35-1.295-0.533-1.996-0.533c-3.096,0-3.798,2.712-4.136,4.016l-5.883,22.706 c-0.085,0.327-0.128,0.687-0.128,1.025c0,1.432,0.765,2.754,2.005,3.467l85.405,49.134c0.615,0.354,1.304,0.533,1.995,0.533 c0.525,0,1.052-0.104,1.549-0.313c1.151-0.482,2.01-1.476,2.323-2.685l6.147-23.724 C155.939,263.001,155.171,261.172,153.611,260.273z M142.913,281.379L64.694,236.38c1.016-3.918,2.831-10.925,4.071-15.711 l78.213,45.018L142.913,281.379z" fill="#000000"/><path d="M217.279,186.368c0-1.429-0.762-2.749-2-3.464l-46.703-26.97c-1.239-0.715-2.765-0.716-4.003,0.001l-55.28,31.973 c-1.24,0.718-2.002,2.043-1.998,3.476s0.774,2.753,2.019,3.462l46.954,26.769c0.623,0.355,1.304,0.525,1.976,0.525 c0.756,0,1.502-0.215,2.145-0.622l54.889-31.686C216.516,189.118,217.279,187.798,217.279,186.368z M158.233,213.525l-38.904-22.18 l47.249-27.327l38.701,22.349L158.233,213.525z" fill="#000000"/></symbol><symbol id="trailer" viewBox="0 0 444.905 444.905"><title>trailer</title><path d="M444.898,164.116c0.002-1.432-0.76-2.755-2-3.471L264.194,57.459c-1.235-0.714-2.755-0.715-3.988-0.007L15.945,197.419 c-1.242,0.712-2.01,2.033-2.012,3.464l0,0.006h-0.006v72.686c0,1.429,0.763,2.75,2,3.464l49.696,28.691l-32.733,56.952L2,380.517 c-1.913,1.104-2.568,3.551-1.464,5.464c0.741,1.283,2.085,2.001,3.468,2.001c0.679,0,1.366-0.173,1.996-0.537l31.249-18.043 l103.169-20.491l54.22,31.303c0.619,0.357,1.31,0.536,2,0.536c0.687,0,1.372-0.177,1.988-0.529l60.716-34.785 c2.497,7.522,6.947,13.276,13.055,16.813c0,0,30.813,17.894,31.045,18.028c4.228,2.44,8.977,3.656,14.046,3.656 c6.136,0,12.741-1.781,19.454-5.325c11.657-6.153,22.381-16.998,30.197-30.536s11.846-28.247,11.346-41.419 c-0.524-13.849-5.958-24.447-15.298-29.843h0l-21.898-12.697c7.685-1.43,14.966-0.565,21.153,3.005 c3.799,2.195,7.019,5.345,9.569,9.36c1.146,1.806,3.509,2.387,5.364,1.326l65.517-37.533c1.244-0.713,2.012-2.037,2.012-3.471 v-72.686H444.898z M196.646,299.445l-107.5-62.061l173.039-99.158L369.687,200.3L196.646,299.445z M377.717,195.699 l-111.523-64.396V67.852l166.682,96.243L377.717,195.699z M258.194,67.825v63.468L81.131,232.757l-55.176-31.854L258.194,67.825z M21.927,207.814l170.711,98.554v63.454L21.927,271.265V207.814z M72.551,309.729l26.026,15.026l-51.876,29.952L72.551,309.729z M58.784,356.969l47.793-27.595l23.329,13.469L58.784,356.969z M370.492,306.957c0.443,11.686-3.207,24.867-10.279,37.116 c-14.266,24.707-37.939,37.839-52.77,29.277c-14.833-8.563-15.295-35.632-1.031-60.339s37.937-37.839,52.77-29.276 C366.058,287.706,370.075,295.953,370.492,306.957z M342.199,273.889c-4.07,0.826-8.271,2.345-12.519,4.587 c-11.656,6.153-22.381,16.997-30.196,30.535c-7.816,13.538-11.846,28.248-11.347,41.42c0.18,4.742,0.948,9.091,2.239,12.992 l-13.969-8.097c-5.733-3.318-8.552-8.995-9.94-13.972l10.342-5.925c0.921-0.527,1.595-1.399,1.872-2.423 c2.411-8.884,6.092-17.641,10.941-26.028c11.078-19.178,26.36-33.222,41.273-39.643L342.199,273.889z M376.557,269.055 c-2.852-3.653-6.241-6.626-10.114-8.864c-12.137-7.002-27.658-6.197-43.702,2.271c-15.44,8.15-29.662,22.539-40.044,40.514 c-4.903,8.48-8.696,17.329-11.286,26.327l-70.772,40.547v-63.472l236.267-135.37v63.476L376.557,269.055z" fill="#000000"/><path d="M347.936,303.212c-4.058-2.343-9.367-1.404-14.95,2.643c-4.675,3.388-9.257,8.731-12.904,15.049 c-9.602,16.629-7.97,29.173-1.395,32.969c1.39,0.803,3.006,1.218,4.783,1.218c6.634,0,15.5-5.794,23.072-18.909 c3.647-6.317,5.984-12.958,6.581-18.7C353.836,310.623,351.994,305.554,347.936,303.212z M345.166,316.655 c-0.477,4.58-2.5,10.239-5.552,15.526c-6.592,11.416-14.707,16.043-16.928,14.764c-2.222-1.283-2.269-10.626,4.322-22.041 c3.053-5.287,6.942-9.869,10.671-12.571c2.343-1.698,4.255-2.373,5.412-2.373c0.355,0,0.641,0.063,0.844,0.181 C344.802,310.64,345.557,312.892,345.166,316.655z" fill="#000000"/></symbol></svg>